<svg xmlns="http://www.w3.org/2000/svg" viewBox="0 0 283.46 49.63" width="283.46" height="49.63"><path d="M28.98 0v10.54l-9.57.09.26 38.39h-8.53V10.54H0V0zm39.75 4.54l.35 30.69s-.24 7.51 5.55 7c5-.4 5.24-7 5.24-7l.46-30.63 7.25-.06v31.85s-1.35 13-13.61 13-12.54-13.24-12.54-13.24V4.54zm45.79 7.21s-2.25-2.77-7.79-2.26c-4.75.43-7.82 9.37-7.4 17.85s3.37 15.49 9.83 14.1c6.12-1.33 7.33-2.74 7.33-2.74l2.65 7.08s-1.77 3.12-9.26 3.52-17.25.88-18.37-21.59c0 0-1.19-25 14.84-25.84 9.8-.53 11.59 2.94 11.59 2.94zM130.23.85l.65 18.45 9.19-.32.27-18.11h7.84l.32 47.74h-8.09l-.83-19.88-9.12.19.21 19.67h-7.86V.85zm23-.5l5.84-.05 16.64 26.92-.84-26.66 9.76.58-.16 47.67-9.16-.31-14.65-29.07-.25 29.6-7.77.08zm69.2 20c0 18.14-7.61 28.91-18.17 29.23s-16.39-7.24-15.36-26.47c0 0-.81-20.83 14.92-20.83.01.02 18.62-.09 18.62 18.11zm-17.8 20.14c5 0 10.06-5.75 10.06-17.67s-9.51-11.9-9.51-11.9c-6 .32-8 4.32-8 12.14s2.4 17.47 7.46 17.47zm50.35-37.6v9.41l-10.26.07-.34 36.93h-9.19l.59-37h-11.84V2.48zM283.46.46v6.76l-15.88.58v7.67l9.89-.13V25l-9.7.45V38h15.74v9.66h-24.42V.46z" fill="#fff"/><path d="M48.09 4.07c1.5-.89 4-1.86 6-.57 2.47 1.61 3.58 2.74 4 7.69 1.06 11.08-1.64 26-8.78 35.63-3.93 5.31-8.44 1.07-8.66.83-3.31-3.62-4.77-8-6.3-12.22-2.4-6.72-3.74-16-3.29-20.63.24-2.45.56-5 2-7.15s2.95-4.35 6.12-4.35a12.87 12.87 0 013.88.85c1.52.73 2.52 3.83 2.73 5.24.63-1.38.79-4.43 2.3-5.32z" fill="#56b9ca"/></svg>